# MagicaVoxel @ Ephtracy

# group
o 

# material
mtllib car.mtl
usemtl palette

# normals
vn -1 0 0
vn 1 0 0
vn 0 0 1
vn 0 0 -1
vn 0 -1 0
vn 0 1 0

# texcoords
vt 0.958984 0.5
vt 0.974609 0.5
vt 0.986328 0.5
vt 0.994141 0.5

# verts
v -2 0.7 1.2
v -2 0.7 -1.2
v -2 0.8 1.2
v -2 0.8 -1.2
v -2 2 1.2
v -2 2 -1.2
v -1.9 0.6 1.2
v -1.9 0.6 -1.2
v -1.9 0.7 1.2
v -1.9 0.7 -1.2
v -1.9 2 1.2
v -1.9 2 -1.2
v -1.9 2.1 1.2
v -1.9 2.1 -1.2
v -1.1 2.1 1.2
v -1.1 2.1 -1.2
v -1.1 3.2 1.2
v -1.1 3.2 -1.2
v 1.1 2.1 1.2
v 1.1 2.1 -1.2
v 1.1 3.2 1.2
v 1.1 3.2 -1.2
v 1.9 0.6 1.2
v 1.9 0.6 -1.2
v 1.9 0.7 1.2
v 1.9 0.7 -1.2
v 1.9 2 1.2
v 1.9 2 -1.2
v 1.9 2.1 1.2
v 1.9 2.1 -1.2
v 2 0.7 1.2
v 2 0.7 -1.2
v 2 0.8 1.2
v 2 0.8 -1.2
v 2 2 1.2
v 2 2 -1.2
v -2 0.7 1.2
v -2 0.8 1.2
v -2 2 1.2
v -1.9 0.6 1.2
v -1.9 0.7 1.2
v -1.9 2 1.2
v -1.9 2.1 1.2
v -1.7 0.6 1.2
v -1.7 0.8 1.2
v -1.7 1.3 1.2
v -1.5 0.8 1.2
v -1.5 1.1 1.2
v -1.3 0.8 1.2
v -1.3 1.1 1.2
v -1.1 0.6 1.2
v -1.1 0.8 1.2
v -1.1 1.3 1.2
v -1.1 2.1 1.2
v -1.1 3.2 1.2
v -0.8 2.1 1.2
v -0.8 2.9 1.2
v 0.8 2.1 1.2
v 0.8 2.9 1.2
v 1.1 0.6 1.2
v 1.1 0.8 1.2
v 1.1 1.3 1.2
v 1.1 2.1 1.2
v 1.1 3.2 1.2
v 1.3 0.8 1.2
v 1.3 1.1 1.2
v 1.5 0.8 1.2
v 1.5 1.1 1.2
v 1.7 0.6 1.2
v 1.7 0.8 1.2
v 1.7 1.3 1.2
v 1.9 0.6 1.2
v 1.9 0.7 1.2
v 1.9 2 1.2
v 1.9 2.1 1.2
v 2 0.7 1.2
v 2 0.8 1.2
v 2 2 1.2
v -2 0.7 -1.2
v -2 0.8 -1.2
v -2 2 -1.2
v -1.9 0.6 -1.2
v -1.9 0.7 -1.2
v -1.9 2 -1.2
v -1.9 2.1 -1.2
v -1.7 0.6 -1.2
v -1.7 0.8 -1.2
v -1.7 1.3 -1.2
v -1.5 0.8 -1.2
v -1.5 1.1 -1.2
v -1.3 0.8 -1.2
v -1.3 1.1 -1.2
v -1.1 0.6 -1.2
v -1.1 0.8 -1.2
v -1.1 1.3 -1.2
v -1.1 2.1 -1.2
v -1.1 3.2 -1.2
v -0.8 2.1 -1.2
v -0.8 2.9 -1.2
v 0.8 2.1 -1.2
v 0.8 2.9 -1.2
v 1.1 0.6 -1.2
v 1.1 0.8 -1.2
v 1.1 1.3 -1.2
v 1.1 2.1 -1.2
v 1.1 3.2 -1.2
v 1.3 0.8 -1.2
v 1.3 1.1 -1.2
v 1.5 0.8 -1.2
v 1.5 1.1 -1.2
v 1.7 0.6 -1.2
v 1.7 0.8 -1.2
v 1.7 1.3 -1.2
v 1.9 0.6 -1.2
v 1.9 0.7 -1.2
v 1.9 2 -1.2
v 1.9 2.1 -1.2
v 2 0.7 -1.2
v 2 0.8 -1.2
v 2 2 -1.2
v -1.9 0.6 1.2
v -1.7 0.6 1.2
v -1.1 0.6 1.2
v 1.1 0.6 1.2
v 1.7 0.6 1.2
v 1.9 0.6 1.2
v -1.9 0.6 -1.2
v -1.7 0.6 -1.2
v -1.1 0.6 -1.2
v 1.1 0.6 -1.2
v 1.7 0.6 -1.2
v 1.9 0.6 -1.2
v -2 0.7 1.2
v -1.9 0.7 1.2
v 1.9 0.7 1.2
v 2 0.7 1.2
v -2 0.7 -1.2
v -1.9 0.7 -1.2
v 1.9 0.7 -1.2
v 2 0.7 -1.2
v -2 2 1.2
v -1.9 2 1.2
v 1.9 2 1.2
v 2 2 1.2
v -2 2 -1.2
v -1.9 2 -1.2
v 1.9 2 -1.2
v 2 2 -1.2
v -1.9 2.1 1.2
v -1.1 2.1 1.2
v 1.1 2.1 1.2
v 1.9 2.1 1.2
v -1.9 2.1 -1.2
v -1.1 2.1 -1.2
v 1.1 2.1 -1.2
v 1.9 2.1 -1.2
v -1.1 3.2 1.2
v 1.1 3.2 1.2
v -1.1 3.2 -1.2
v 1.1 3.2 -1.2

# faces
f 3/3/1 2/3/1 1/3/1
f 4/3/1 2/3/1 3/3/1
f 5/2/1 4/2/1 3/2/1
f 6/2/1 4/2/1 5/2/1
f 9/3/1 8/3/1 7/3/1
f 10/3/1 8/3/1 9/3/1
f 13/2/1 12/2/1 11/2/1
f 14/2/1 12/2/1 13/2/1
f 17/1/1 16/1/1 15/1/1
f 18/1/1 16/1/1 17/1/1
f 19/1/2 20/1/2 21/1/2
f 21/1/2 20/1/2 22/1/2
f 23/3/2 24/3/2 25/3/2
f 25/3/2 24/3/2 26/3/2
f 27/2/2 28/2/2 29/2/2
f 29/2/2 28/2/2 30/2/2
f 31/3/2 32/3/2 33/3/2
f 33/3/2 32/3/2 34/3/2
f 33/2/2 34/2/2 35/2/2
f 35/2/2 34/2/2 36/2/2
f 41/3/3 38/3/3 37/3/3
f 42/2/3 39/2/3 38/2/3
f 44/3/3 41/3/3 40/3/3
f 45/2/3 43/2/3 42/2/3
f 45/3/3 41/3/3 44/3/3
f 45/3/3 38/3/3 41/3/3
f 45/2/3 42/2/3 38/2/3
f 46/2/3 43/2/3 45/2/3
f 47/4/3 45/4/3 44/4/3
f 47/4/3 46/4/3 45/4/3
f 48/4/3 46/4/3 47/4/3
f 49/4/3 47/4/3 44/4/3
f 49/2/3 48/2/3 47/2/3
f 50/4/3 46/4/3 48/4/3
f 50/2/3 48/2/3 49/2/3
f 51/4/3 49/4/3 44/4/3
f 51/4/3 50/4/3 49/4/3
f 52/4/3 50/4/3 51/4/3
f 53/2/3 43/2/3 46/2/3
f 53/4/3 50/4/3 52/4/3
f 53/4/3 46/4/3 50/4/3
f 54/2/3 43/2/3 53/2/3
f 56/2/3 53/2/3 52/2/3
f 56/1/3 55/1/3 54/1/3
f 56/2/3 54/2/3 53/2/3
f 57/1/3 55/1/3 56/1/3
f 58/2/3 56/2/3 52/2/3
f 58/4/3 57/4/3 56/4/3
f 59/1/3 55/1/3 57/1/3
f 59/4/3 57/4/3 58/4/3
f 60/3/3 52/3/3 51/3/3
f 61/2/3 58/2/3 52/2/3
f 61/3/3 52/3/3 60/3/3
f 62/2/3 58/2/3 61/2/3
f 63/1/3 59/1/3 58/1/3
f 63/2/3 58/2/3 62/2/3
f 64/1/3 55/1/3 59/1/3
f 64/1/3 59/1/3 63/1/3
f 65/4/3 62/4/3 61/4/3
f 65/4/3 61/4/3 60/4/3
f 66/4/3 62/4/3 65/4/3
f 67/4/3 65/4/3 60/4/3
f 67/2/3 66/2/3 65/2/3
f 68/4/3 62/4/3 66/4/3
f 68/2/3 66/2/3 67/2/3
f 69/4/3 67/4/3 60/4/3
f 69/4/3 68/4/3 67/4/3
f 70/4/3 68/4/3 69/4/3
f 71/2/3 63/2/3 62/2/3
f 71/4/3 68/4/3 70/4/3
f 71/4/3 62/4/3 68/4/3
f 72/3/3 70/3/3 69/3/3
f 73/3/3 70/3/3 72/3/3
f 74/2/3 63/2/3 71/2/3
f 74/2/3 71/2/3 70/2/3
f 75/2/3 63/2/3 74/2/3
f 76/3/3 70/3/3 73/3/3
f 77/2/3 74/2/3 70/2/3
f 77/3/3 70/3/3 76/3/3
f 78/2/3 74/2/3 77/2/3
f 79/3/4 80/3/4 83/3/4
f 80/2/4 81/2/4 84/2/4
f 82/3/4 83/3/4 86/3/4
f 84/2/4 85/2/4 87/2/4
f 86/3/4 83/3/4 87/3/4
f 83/3/4 80/3/4 87/3/4
f 80/2/4 84/2/4 87/2/4
f 87/2/4 85/2/4 88/2/4
f 86/4/4 87/4/4 89/4/4
f 87/4/4 88/4/4 89/4/4
f 89/4/4 88/4/4 90/4/4
f 86/4/4 89/4/4 91/4/4
f 89/2/4 90/2/4 91/2/4
f 90/4/4 88/4/4 92/4/4
f 91/2/4 90/2/4 92/2/4
f 86/4/4 91/4/4 93/4/4
f 91/4/4 92/4/4 93/4/4
f 93/4/4 92/4/4 94/4/4
f 88/2/4 85/2/4 95/2/4
f 94/4/4 92/4/4 95/4/4
f 92/4/4 88/4/4 95/4/4
f 95/2/4 85/2/4 96/2/4
f 94/2/4 95/2/4 98/2/4
f 96/1/4 97/1/4 98/1/4
f 95/2/4 96/2/4 98/2/4
f 98/1/4 97/1/4 99/1/4
f 94/2/4 98/2/4 100/2/4
f 98/4/4 99/4/4 100/4/4
f 99/1/4 97/1/4 101/1/4
f 100/4/4 99/4/4 101/4/4
f 93/3/4 94/3/4 102/3/4
f 94/2/4 100/2/4 103/2/4
f 102/3/4 94/3/4 103/3/4
f 103/2/4 100/2/4 104/2/4
f 100/1/4 101/1/4 105/1/4
f 104/2/4 100/2/4 105/2/4
f 101/1/4 97/1/4 106/1/4
f 105/1/4 101/1/4 106/1/4
f 103/4/4 104/4/4 107/4/4
f 102/4/4 103/4/4 107/4/4
f 107/4/4 104/4/4 108/4/4
f 102/4/4 107/4/4 109/4/4
f 107/2/4 108/2/4 109/2/4
f 108/4/4 104/4/4 110/4/4
f 109/2/4 108/2/4 110/2/4
f 102/4/4 109/4/4 111/4/4
f 109/4/4 110/4/4 111/4/4
f 111/4/4 110/4/4 112/4/4
f 104/2/4 105/2/4 113/2/4
f 112/4/4 110/4/4 113/4/4
f 110/4/4 104/4/4 113/4/4
f 111/3/4 112/3/4 114/3/4
f 114/3/4 112/3/4 115/3/4
f 113/2/4 105/2/4 116/2/4
f 112/2/4 113/2/4 116/2/4
f 116/2/4 105/2/4 117/2/4
f 115/3/4 112/3/4 118/3/4
f 112/2/4 116/2/4 119/2/4
f 118/3/4 112/3/4 119/3/4
f 119/2/4 116/2/4 120/2/4
f 127/3/5 122/3/5 121/3/5
f 128/4/5 123/4/5 122/4/5
f 128/3/5 122/3/5 127/3/5
f 129/3/5 124/3/5 123/3/5
f 129/4/5 123/4/5 128/4/5
f 130/4/5 125/4/5 124/4/5
f 130/3/5 124/3/5 129/3/5
f 131/3/5 126/3/5 125/3/5
f 131/4/5 125/4/5 130/4/5
f 132/3/5 126/3/5 131/3/5
f 137/3/5 134/3/5 133/3/5
f 138/3/5 134/3/5 137/3/5
f 139/3/5 136/3/5 135/3/5
f 140/3/5 136/3/5 139/3/5
f 141/2/6 142/2/6 145/2/6
f 145/2/6 142/2/6 146/2/6
f 143/2/6 144/2/6 147/2/6
f 147/2/6 144/2/6 148/2/6
f 149/2/6 150/2/6 153/2/6
f 153/2/6 150/2/6 154/2/6
f 151/2/6 152/2/6 155/2/6
f 155/2/6 152/2/6 156/2/6
f 157/1/6 158/1/6 159/1/6
f 159/1/6 158/1/6 160/1/6
