# MagicaVoxel @ Ephtracy

# group
o 

# material
mtllib chicken.mtl
usemtl palette

# normals
vn -1 0 0
vn 1 0 0
vn 0 0 1
vn 0 0 -1
vn 0 -1 0
vn 0 1 0

# texcoords
vt 0.00195312 0.5
vt 0.0917969 0.5
vt 0.134766 0.5
vt 0.994141 0.5

# verts
v -1 1.4 0.9
v -1 1.4 -0.8
v -1 2.3 0.9
v -1 2.3 -0.8
v -0.8 0.9 1.3
v -0.8 0.9 -1.3
v -0.8 1.4 0.9
v -0.8 1.4 -0.8
v -0.8 2.3 0.9
v -0.8 2.3 -0.8
v -0.8 2.4 1.3
v -0.8 2.4 -0.1
v -0.8 3.2 -0.6
v -0.8 3.2 -0.9
v -0.8 3.5 -0.6
v -0.8 3.5 -0.9
v -0.8 3.7 -0.1
v -0.8 3.7 -1.3
v -0.7 0 -0.2
v -0.7 0 -0.8
v -0.7 0.1 -0.2
v -0.7 0.1 -0.8
v -0.6 0.1 -0.2
v -0.6 0.1 -0.5
v -0.6 0.9 -0.2
v -0.6 0.9 -0.5
v -0.4 0 -0.6
v -0.4 0 -0.8
v -0.4 0.1 -0.6
v -0.4 0.1 -0.8
v -0.2 2.8 -1.3
v -0.2 2.8 -1.4
v -0.2 3 -1.3
v -0.2 3 -1.4
v -0.2 3 -1.5
v -0.2 3.4 -1.3
v -0.2 3.4 -1.5
v -0.2 3.7 -0.4
v -0.2 3.7 -1.2
v -0.2 3.9 -0.4
v -0.2 3.9 -1.2
v 0.2 0 -0.2
v 0.2 0 -0.8
v 0.2 0.1 -0.2
v 0.2 0.1 -0.8
v 0.3 0.1 -0.2
v 0.3 0.1 -0.5
v 0.3 0.9 -0.2
v 0.3 0.9 -0.5
v 0.5 0 -0.6
v 0.5 0 -0.8
v 0.5 0.1 -0.6
v 0.5 0.1 -0.8
v -0.5 0 -0.6
v -0.5 0 -0.8
v -0.5 0.1 -0.6
v -0.5 0.1 -0.8
v -0.3 0.1 -0.2
v -0.3 0.1 -0.5
v -0.3 0.9 -0.2
v -0.3 0.9 -0.5
v -0.2 0 -0.2
v -0.2 0 -0.8
v -0.2 0.1 -0.2
v -0.2 0.1 -0.8
v 0.2 2.8 -1.3
v 0.2 2.8 -1.4
v 0.2 3 -1.3
v 0.2 3 -1.4
v 0.2 3 -1.5
v 0.2 3.4 -1.3
v 0.2 3.4 -1.5
v 0.2 3.7 -0.4
v 0.2 3.7 -1.2
v 0.2 3.9 -0.4
v 0.2 3.9 -1.2
v 0.4 0 -0.6
v 0.4 0 -0.8
v 0.4 0.1 -0.6
v 0.4 0.1 -0.8
v 0.6 0.1 -0.2
v 0.6 0.1 -0.5
v 0.6 0.9 -0.2
v 0.6 0.9 -0.5
v 0.7 0 -0.2
v 0.7 0 -0.8
v 0.7 0.1 -0.2
v 0.7 0.1 -0.8
v 0.8 0.9 1.3
v 0.8 0.9 -1.3
v 0.8 1.4 0.9
v 0.8 1.4 -0.8
v 0.8 2.3 0.9
v 0.8 2.3 -0.8
v 0.8 2.4 1.3
v 0.8 2.4 -0.1
v 0.8 3.2 -0.6
v 0.8 3.2 -0.9
v 0.8 3.5 -0.6
v 0.8 3.5 -0.9
v 0.8 3.7 -0.1
v 0.8 3.7 -1.3
v 1 1.4 0.9
v 1 1.4 -0.8
v 1 2.3 0.9
v 1 2.3 -0.8
v -0.8 0.9 1.3
v -0.8 2.4 1.3
v 0.8 0.9 1.3
v 0.8 2.4 1.3
v -1 1.4 0.9
v -1 2.3 0.9
v -0.8 1.4 0.9
v -0.8 2.3 0.9
v 0.8 1.4 0.9
v 0.8 2.3 0.9
v 1 1.4 0.9
v 1 2.3 0.9
v -0.8 2.4 -0.1
v -0.8 3.7 -0.1
v 0.8 2.4 -0.1
v 0.8 3.7 -0.1
v -0.7 0 -0.2
v -0.7 0.1 -0.2
v -0.6 0.1 -0.2
v -0.6 0.9 -0.2
v -0.3 0.1 -0.2
v -0.3 0.9 -0.2
v -0.2 0 -0.2
v -0.2 0.1 -0.2
v 0.2 0 -0.2
v 0.2 0.1 -0.2
v 0.3 0.1 -0.2
v 0.3 0.9 -0.2
v 0.6 0.1 -0.2
v 0.6 0.9 -0.2
v 0.7 0 -0.2
v 0.7 0.1 -0.2
v -0.2 3.7 -0.4
v -0.2 3.9 -0.4
v 0.2 3.7 -0.4
v 0.2 3.9 -0.4
v -0.6 0.1 -0.5
v -0.6 0.9 -0.5
v -0.3 0.1 -0.5
v -0.3 0.9 -0.5
v 0.3 0.1 -0.5
v 0.3 0.9 -0.5
v 0.6 0.1 -0.5
v 0.6 0.9 -0.5
v -0.5 0 -0.6
v -0.5 0.1 -0.6
v -0.4 0 -0.6
v -0.4 0.1 -0.6
v 0.4 0 -0.6
v 0.4 0.1 -0.6
v 0.5 0 -0.6
v 0.5 0.1 -0.6
v -1 1.4 -0.8
v -1 2.3 -0.8
v -0.8 1.4 -0.8
v -0.8 2.3 -0.8
v -0.7 0 -0.8
v -0.7 0.1 -0.8
v -0.5 0 -0.8
v -0.5 0.1 -0.8
v -0.4 0 -0.8
v -0.4 0.1 -0.8
v -0.2 0 -0.8
v -0.2 0.1 -0.8
v 0.2 0 -0.8
v 0.2 0.1 -0.8
v 0.4 0 -0.8
v 0.4 0.1 -0.8
v 0.5 0 -0.8
v 0.5 0.1 -0.8
v 0.7 0 -0.8
v 0.7 0.1 -0.8
v 0.8 1.4 -0.8
v 0.8 2.3 -0.8
v 1 1.4 -0.8
v 1 2.3 -0.8
v -0.2 3.7 -1.2
v -0.2 3.9 -1.2
v 0.2 3.7 -1.2
v 0.2 3.9 -1.2
v -0.8 0.9 -1.3
v -0.8 3.7 -1.3
v -0.2 2.8 -1.3
v -0.2 3 -1.3
v -0.2 3.4 -1.3
v 0.2 2.8 -1.3
v 0.2 3 -1.3
v 0.2 3.4 -1.3
v 0.8 0.9 -1.3
v 0.8 3.7 -1.3
v -0.2 2.8 -1.4
v -0.2 3 -1.4
v 0.2 2.8 -1.4
v 0.2 3 -1.4
v -0.2 3 -1.5
v -0.2 3.4 -1.5
v 0.2 3 -1.5
v 0.2 3.4 -1.5
v -0.7 0 -0.2
v -0.2 0 -0.2
v 0.2 0 -0.2
v 0.7 0 -0.2
v -0.5 0 -0.6
v -0.4 0 -0.6
v 0.4 0 -0.6
v 0.5 0 -0.6
v -0.7 0 -0.8
v -0.5 0 -0.8
v -0.4 0 -0.8
v -0.2 0 -0.8
v 0.2 0 -0.8
v 0.4 0 -0.8
v 0.5 0 -0.8
v 0.7 0 -0.8
v -0.8 0.9 1.3
v 0.8 0.9 1.3
v -0.6 0.9 -0.2
v -0.3 0.9 -0.2
v 0.3 0.9 -0.2
v 0.6 0.9 -0.2
v -0.6 0.9 -0.5
v -0.3 0.9 -0.5
v 0.3 0.9 -0.5
v 0.6 0.9 -0.5
v -0.8 0.9 -1.3
v 0.8 0.9 -1.3
v -1 1.4 0.9
v -0.8 1.4 0.9
v 0.8 1.4 0.9
v 1 1.4 0.9
v -1 1.4 -0.8
v -0.8 1.4 -0.8
v 0.8 1.4 -0.8
v 1 1.4 -0.8
v -0.2 2.8 -1.3
v 0.2 2.8 -1.3
v -0.2 2.8 -1.4
v 0.2 2.8 -1.4
v -0.2 3 -1.4
v 0.2 3 -1.4
v -0.2 3 -1.5
v 0.2 3 -1.5
v -0.7 0.1 -0.2
v -0.6 0.1 -0.2
v -0.3 0.1 -0.2
v -0.2 0.1 -0.2
v 0.2 0.1 -0.2
v 0.3 0.1 -0.2
v 0.6 0.1 -0.2
v 0.7 0.1 -0.2
v -0.6 0.1 -0.5
v -0.3 0.1 -0.5
v 0.3 0.1 -0.5
v 0.6 0.1 -0.5
v -0.5 0.1 -0.6
v -0.4 0.1 -0.6
v 0.4 0.1 -0.6
v 0.5 0.1 -0.6
v -0.7 0.1 -0.8
v -0.5 0.1 -0.8
v -0.4 0.1 -0.8
v -0.2 0.1 -0.8
v 0.2 0.1 -0.8
v 0.4 0.1 -0.8
v 0.5 0.1 -0.8
v 0.7 0.1 -0.8
v -1 2.3 0.9
v -0.8 2.3 0.9
v 0.8 2.3 0.9
v 1 2.3 0.9
v -1 2.3 -0.8
v -0.8 2.3 -0.8
v 0.8 2.3 -0.8
v 1 2.3 -0.8
v -0.8 2.4 1.3
v 0.8 2.4 1.3
v -0.8 2.4 -0.1
v 0.8 2.4 -0.1
v -0.2 3.4 -1.3
v 0.2 3.4 -1.3
v -0.2 3.4 -1.5
v 0.2 3.4 -1.5
v -0.8 3.7 -0.1
v 0.8 3.7 -0.1
v -0.2 3.7 -0.4
v 0.2 3.7 -0.4
v -0.2 3.7 -1.2
v 0.2 3.7 -1.2
v -0.8 3.7 -1.3
v 0.8 3.7 -1.3
v -0.2 3.9 -0.4
v 0.2 3.9 -0.4
v -0.2 3.9 -1.2
v 0.2 3.9 -1.2

# faces
f 3/1/1 2/1/1 1/1/1
f 4/1/1 2/1/1 3/1/1
f 7/1/1 6/1/1 5/1/1
f 8/1/1 6/1/1 7/1/1
f 9/1/1 7/1/1 5/1/1
f 10/1/1 6/1/1 8/1/1
f 11/1/1 9/1/1 5/1/1
f 11/1/1 10/1/1 9/1/1
f 12/1/1 10/1/1 11/1/1
f 13/1/1 10/1/1 12/1/1
f 14/1/1 6/1/1 10/1/1
f 14/1/1 10/1/1 13/1/1
f 15/1/1 13/1/1 12/1/1
f 15/4/1 14/4/1 13/4/1
f 16/1/1 6/1/1 14/1/1
f 16/4/1 14/4/1 15/4/1
f 17/1/1 15/1/1 12/1/1
f 17/1/1 16/1/1 15/1/1
f 18/1/1 6/1/1 16/1/1
f 18/1/1 16/1/1 17/1/1
f 21/2/1 20/2/1 19/2/1
f 22/2/1 20/2/1 21/2/1
f 25/2/1 24/2/1 23/2/1
f 26/2/1 24/2/1 25/2/1
f 29/2/1 28/2/1 27/2/1
f 30/2/1 28/2/1 29/2/1
f 33/3/1 32/3/1 31/3/1
f 34/3/1 32/3/1 33/3/1
f 36/2/1 34/2/1 33/2/1
f 36/2/1 35/2/1 34/2/1
f 37/2/1 35/2/1 36/2/1
f 40/3/1 39/3/1 38/3/1
f 41/3/1 39/3/1 40/3/1
f 44/2/1 43/2/1 42/2/1
f 45/2/1 43/2/1 44/2/1
f 48/2/1 47/2/1 46/2/1
f 49/2/1 47/2/1 48/2/1
f 52/2/1 51/2/1 50/2/1
f 53/2/1 51/2/1 52/2/1
f 54/2/2 55/2/2 56/2/2
f 56/2/2 55/2/2 57/2/2
f 58/2/2 59/2/2 60/2/2
f 60/2/2 59/2/2 61/2/2
f 62/2/2 63/2/2 64/2/2
f 64/2/2 63/2/2 65/2/2
f 66/3/2 67/3/2 68/3/2
f 68/3/2 67/3/2 69/3/2
f 68/2/2 69/2/2 71/2/2
f 69/2/2 70/2/2 71/2/2
f 71/2/2 70/2/2 72/2/2
f 73/3/2 74/3/2 75/3/2
f 75/3/2 74/3/2 76/3/2
f 77/2/2 78/2/2 79/2/2
f 79/2/2 78/2/2 80/2/2
f 81/2/2 82/2/2 83/2/2
f 83/2/2 82/2/2 84/2/2
f 85/2/2 86/2/2 87/2/2
f 87/2/2 86/2/2 88/2/2
f 89/1/2 90/1/2 91/1/2
f 91/1/2 90/1/2 92/1/2
f 89/1/2 91/1/2 93/1/2
f 92/1/2 90/1/2 94/1/2
f 89/1/2 93/1/2 95/1/2
f 93/1/2 94/1/2 95/1/2
f 95/1/2 94/1/2 96/1/2
f 96/1/2 94/1/2 97/1/2
f 94/1/2 90/1/2 98/1/2
f 97/1/2 94/1/2 98/1/2
f 96/1/2 97/1/2 99/1/2
f 97/4/2 98/4/2 99/4/2
f 98/1/2 90/1/2 100/1/2
f 99/4/2 98/4/2 100/4/2
f 96/1/2 99/1/2 101/1/2
f 99/1/2 100/1/2 101/1/2
f 100/1/2 90/1/2 102/1/2
f 101/1/2 100/1/2 102/1/2
f 103/1/2 104/1/2 105/1/2
f 105/1/2 104/1/2 106/1/2
f 109/1/3 108/1/3 107/1/3
f 110/1/3 108/1/3 109/1/3
f 113/1/3 112/1/3 111/1/3
f 114/1/3 112/1/3 113/1/3
f 117/1/3 116/1/3 115/1/3
f 118/1/3 116/1/3 117/1/3
f 121/1/3 120/1/3 119/1/3
f 122/1/3 120/1/3 121/1/3
f 125/2/3 124/2/3 123/2/3
f 127/2/3 125/2/3 123/2/3
f 127/2/3 126/2/3 125/2/3
f 128/2/3 126/2/3 127/2/3
f 129/2/3 127/2/3 123/2/3
f 130/2/3 127/2/3 129/2/3
f 133/2/3 132/2/3 131/2/3
f 135/2/3 133/2/3 131/2/3
f 135/2/3 134/2/3 133/2/3
f 136/2/3 134/2/3 135/2/3
f 137/2/3 135/2/3 131/2/3
f 138/2/3 135/2/3 137/2/3
f 141/3/3 140/3/3 139/3/3
f 142/3/3 140/3/3 141/3/3
f 143/2/4 144/2/4 145/2/4
f 145/2/4 144/2/4 146/2/4
f 147/2/4 148/2/4 149/2/4
f 149/2/4 148/2/4 150/2/4
f 151/2/4 152/2/4 153/2/4
f 153/2/4 152/2/4 154/2/4
f 155/2/4 156/2/4 157/2/4
f 157/2/4 156/2/4 158/2/4
f 159/1/4 160/1/4 161/1/4
f 161/1/4 160/1/4 162/1/4
f 163/2/4 164/2/4 165/2/4
f 165/2/4 164/2/4 166/2/4
f 167/2/4 168/2/4 169/2/4
f 169/2/4 168/2/4 170/2/4
f 171/2/4 172/2/4 173/2/4
f 173/2/4 172/2/4 174/2/4
f 175/2/4 176/2/4 177/2/4
f 177/2/4 176/2/4 178/2/4
f 179/1/4 180/1/4 181/1/4
f 181/1/4 180/1/4 182/1/4
f 183/3/4 184/3/4 185/3/4
f 185/3/4 184/3/4 186/3/4
f 187/1/4 188/1/4 189/1/4
f 189/1/4 188/1/4 190/1/4
f 190/1/4 188/1/4 191/1/4
f 187/1/4 189/1/4 192/1/4
f 191/1/4 188/1/4 194/1/4
f 192/1/4 193/1/4 195/1/4
f 193/1/4 194/1/4 195/1/4
f 187/1/4 192/1/4 195/1/4
f 194/1/4 188/1/4 196/1/4
f 195/1/4 194/1/4 196/1/4
f 197/3/4 198/3/4 199/3/4
f 199/3/4 198/3/4 200/3/4
f 201/2/4 202/2/4 203/2/4
f 203/2/4 202/2/4 204/2/4
f 209/2/5 206/2/5 205/2/5
f 210/2/5 206/2/5 209/2/5
f 211/2/5 208/2/5 207/2/5
f 212/2/5 208/2/5 211/2/5
f 213/2/5 209/2/5 205/2/5
f 214/2/5 209/2/5 213/2/5
f 215/2/5 206/2/5 210/2/5
f 216/2/5 206/2/5 215/2/5
f 217/2/5 211/2/5 207/2/5
f 218/2/5 211/2/5 217/2/5
f 219/2/5 208/2/5 212/2/5
f 220/2/5 208/2/5 219/2/5
f 223/1/5 222/1/5 221/1/5
f 224/1/5 222/1/5 223/1/5
f 225/1/5 222/1/5 224/1/5
f 226/1/5 222/1/5 225/1/5
f 227/1/5 223/1/5 221/1/5
f 228/1/5 225/1/5 224/1/5
f 229/1/5 225/1/5 228/1/5
f 230/1/5 222/1/5 226/1/5
f 231/1/5 229/1/5 228/1/5
f 231/1/5 230/1/5 229/1/5
f 231/1/5 227/1/5 221/1/5
f 231/1/5 228/1/5 227/1/5
f 232/1/5 222/1/5 230/1/5
f 232/1/5 230/1/5 231/1/5
f 237/1/5 234/1/5 233/1/5
f 238/1/5 234/1/5 237/1/5
f 239/1/5 236/1/5 235/1/5
f 240/1/5 236/1/5 239/1/5
f 243/3/5 242/3/5 241/3/5
f 244/3/5 242/3/5 243/3/5
f 247/2/5 246/2/5 245/2/5
f 248/2/5 246/2/5 247/2/5
f 249/2/6 250/2/6 257/2/6
f 251/2/6 252/2/6 258/2/6
f 253/2/6 254/2/6 259/2/6
f 255/2/6 256/2/6 260/2/6
f 257/2/6 258/2/6 261/2/6
f 261/2/6 258/2/6 262/2/6
f 259/2/6 260/2/6 263/2/6
f 263/2/6 260/2/6 264/2/6
f 249/2/6 257/2/6 265/2/6
f 257/2/6 261/2/6 265/2/6
f 265/2/6 261/2/6 266/2/6
f 262/2/6 258/2/6 267/2/6
f 258/2/6 252/2/6 268/2/6
f 267/2/6 258/2/6 268/2/6
f 253/2/6 259/2/6 269/2/6
f 259/2/6 263/2/6 269/2/6
f 269/2/6 263/2/6 270/2/6
f 264/2/6 260/2/6 271/2/6
f 260/2/6 256/2/6 272/2/6
f 271/2/6 260/2/6 272/2/6
f 273/1/6 274/1/6 277/1/6
f 277/1/6 274/1/6 278/1/6
f 275/1/6 276/1/6 279/1/6
f 279/1/6 276/1/6 280/1/6
f 281/1/6 282/1/6 283/1/6
f 283/1/6 282/1/6 284/1/6
f 285/2/6 286/2/6 287/2/6
f 287/2/6 286/2/6 288/2/6
f 289/1/6 290/1/6 291/1/6
f 291/1/6 290/1/6 292/1/6
f 289/1/6 291/1/6 293/1/6
f 292/1/6 290/1/6 294/1/6
f 289/1/6 293/1/6 295/1/6
f 293/1/6 294/1/6 295/1/6
f 294/1/6 290/1/6 296/1/6
f 295/1/6 294/1/6 296/1/6
f 297/3/6 298/3/6 299/3/6
f 299/3/6 298/3/6 300/3/6
