# MagicaVoxel @ Ephtracy

# group
o 

# material
mtllib markedHighway.mtl
usemtl palette

# normals
vn -1 0 0
vn 1 0 0
vn 0 0 1
vn 0 0 -1
vn 0 -1 0
vn 0 1 0

# texcoords
vt 0.974609 0.5
vt 0.986328 0.5

# verts
v -2 0 2
v -2 0 1.7
v -2 0 1.4
v -2 0 1.1
v -2 0 0.8
v -2 0 0.5
v -2 0 0.2
v -2 0 -0.2
v -2 0 -0.5
v -2 0 -0.8
v -2 0 -1.1
v -2 0 -1.4
v -2 0 -1.7
v -2 0 -2
v -2 0.1 2
v -2 0.1 1.7
v -2 0.1 1.4
v -2 0.1 1.1
v -2 0.1 0.8
v -2 0.1 0.5
v -2 0.1 0.2
v -2 0.1 -0.2
v -2 0.1 -0.5
v -2 0.1 -0.8
v -2 0.1 -1.1
v -2 0.1 -1.4
v -2 0.1 -1.7
v -2 0.1 -2
v -2 3.9 2
v -2 3.9 1.7
v -2 3.9 1.4
v -2 3.9 1.1
v -2 3.9 0.8
v -2 3.9 0.5
v -2 3.9 0.2
v -2 3.9 -0.2
v -2 3.9 -0.5
v -2 3.9 -0.8
v -2 3.9 -1.1
v -2 3.9 -1.4
v -2 3.9 -1.7
v -2 3.9 -2
v -2 4 2
v -2 4 1.7
v -2 4 1.4
v -2 4 1.1
v -2 4 0.8
v -2 4 0.5
v -2 4 0.2
v -2 4 -0.2
v -2 4 -0.5
v -2 4 -0.8
v -2 4 -1.1
v -2 4 -1.4
v -2 4 -1.7
v -2 4 -2
v 2 0 2
v 2 0 -2
v 2 4 2
v 2 4 -2
v -2 0 2
v -2 0.1 2
v -2 3.9 2
v -2 4 2
v -1.4 0 2
v -1.4 0.1 2
v -1.4 3.9 2
v -1.4 4 2
v 2 0 2
v 2 4 2
v -2 0 -2
v -2 0.1 -2
v -2 3.9 -2
v -2 4 -2
v -1.4 0 -2
v -1.4 0.1 -2
v -1.4 3.9 -2
v -1.4 4 -2
v 2 0 -2
v 2 4 -2
v -2 0 2
v -1.4 0 2
v 2 0 2
v -2 0 1.7
v -1.4 0 1.7
v -2 0 1.4
v -1.4 0 1.4
v -2 0 1.1
v -1.4 0 1.1
v -2 0 0.8
v -1.4 0 0.8
v -2 0 0.5
v -1.4 0 0.5
v -2 0 0.2
v -1.4 0 0.2
v -2 0 -0.2
v -1.4 0 -0.2
v -2 0 -0.5
v -1.4 0 -0.5
v -2 0 -0.8
v -1.4 0 -0.8
v -2 0 -1.1
v -1.4 0 -1.1
v -2 0 -1.4
v -1.4 0 -1.4
v -2 0 -1.7
v -1.4 0 -1.7
v -2 0 -2
v -1.4 0 -2
v 2 0 -2
v -2 4 2
v -1.4 4 2
v 2 4 2
v -2 4 1.7
v -1.4 4 1.7
v -2 4 1.4
v -1.4 4 1.4
v -2 4 1.1
v -1.4 4 1.1
v -2 4 0.8
v -1.4 4 0.8
v -2 4 0.5
v -1.4 4 0.5
v -2 4 0.2
v -1.4 4 0.2
v -2 4 -0.2
v -1.4 4 -0.2
v -2 4 -0.5
v -1.4 4 -0.5
v -2 4 -0.8
v -1.4 4 -0.8
v -2 4 -1.1
v -1.4 4 -1.1
v -2 4 -1.4
v -1.4 4 -1.4
v -2 4 -1.7
v -1.4 4 -1.7
v -2 4 -2
v -1.4 4 -2
v 2 4 -2

# faces
f 15/1/1 2/1/1 1/1/1
f 16/2/1 3/2/1 2/2/1
f 16/1/1 2/1/1 15/1/1
f 17/1/1 4/1/1 3/1/1
f 17/2/1 3/2/1 16/2/1
f 18/2/1 5/2/1 4/2/1
f 18/1/1 4/1/1 17/1/1
f 19/1/1 6/1/1 5/1/1
f 19/2/1 5/2/1 18/2/1
f 20/2/1 7/2/1 6/2/1
f 20/1/1 6/1/1 19/1/1
f 21/1/1 8/1/1 7/1/1
f 21/2/1 7/2/1 20/2/1
f 22/2/1 9/2/1 8/2/1
f 22/1/1 8/1/1 21/1/1
f 23/1/1 10/1/1 9/1/1
f 23/2/1 9/2/1 22/2/1
f 24/2/1 11/2/1 10/2/1
f 24/1/1 10/1/1 23/1/1
f 25/1/1 12/1/1 11/1/1
f 25/2/1 11/2/1 24/2/1
f 26/2/1 13/2/1 12/2/1
f 26/1/1 12/1/1 25/1/1
f 27/1/1 14/1/1 13/1/1
f 27/2/1 13/2/1 26/2/1
f 28/1/1 14/1/1 27/1/1
f 29/2/1 26/2/1 25/2/1
f 29/2/1 16/2/1 15/2/1
f 29/2/1 28/2/1 27/2/1
f 29/2/1 27/2/1 26/2/1
f 29/2/1 25/2/1 24/2/1
f 29/2/1 24/2/1 23/2/1
f 29/2/1 23/2/1 22/2/1
f 29/2/1 22/2/1 21/2/1
f 29/2/1 21/2/1 20/2/1
f 29/2/1 20/2/1 19/2/1
f 29/2/1 19/2/1 18/2/1
f 29/2/1 18/2/1 17/2/1
f 29/2/1 17/2/1 16/2/1
f 30/2/1 28/2/1 29/2/1
f 31/2/1 28/2/1 30/2/1
f 32/2/1 28/2/1 31/2/1
f 33/2/1 28/2/1 32/2/1
f 34/2/1 28/2/1 33/2/1
f 35/2/1 28/2/1 34/2/1
f 36/2/1 28/2/1 35/2/1
f 37/2/1 28/2/1 36/2/1
f 38/2/1 28/2/1 37/2/1
f 39/2/1 28/2/1 38/2/1
f 40/2/1 28/2/1 39/2/1
f 41/2/1 28/2/1 40/2/1
f 42/2/1 28/2/1 41/2/1
f 43/1/1 30/1/1 29/1/1
f 44/2/1 31/2/1 30/2/1
f 44/1/1 30/1/1 43/1/1
f 45/1/1 32/1/1 31/1/1
f 45/2/1 31/2/1 44/2/1
f 46/2/1 33/2/1 32/2/1
f 46/1/1 32/1/1 45/1/1
f 47/1/1 34/1/1 33/1/1
f 47/2/1 33/2/1 46/2/1
f 48/2/1 35/2/1 34/2/1
f 48/1/1 34/1/1 47/1/1
f 49/1/1 36/1/1 35/1/1
f 49/2/1 35/2/1 48/2/1
f 50/2/1 37/2/1 36/2/1
f 50/1/1 36/1/1 49/1/1
f 51/1/1 38/1/1 37/1/1
f 51/2/1 37/2/1 50/2/1
f 52/2/1 39/2/1 38/2/1
f 52/1/1 38/1/1 51/1/1
f 53/1/1 40/1/1 39/1/1
f 53/2/1 39/2/1 52/2/1
f 54/2/1 41/2/1 40/2/1
f 54/1/1 40/1/1 53/1/1
f 55/1/1 42/1/1 41/1/1
f 55/2/1 41/2/1 54/2/1
f 56/1/1 42/1/1 55/1/1
f 57/2/2 58/2/2 59/2/2
f 59/2/2 58/2/2 60/2/2
f 65/1/3 62/1/3 61/1/3
f 66/2/3 63/2/3 62/2/3
f 66/1/3 62/1/3 65/1/3
f 67/1/3 64/1/3 63/1/3
f 67/2/3 63/2/3 66/2/3
f 68/1/3 64/1/3 67/1/3
f 69/2/3 66/2/3 65/2/3
f 69/2/3 67/2/3 66/2/3
f 69/2/3 68/2/3 67/2/3
f 70/2/3 68/2/3 69/2/3
f 71/1/4 72/1/4 75/1/4
f 72/2/4 73/2/4 76/2/4
f 75/1/4 72/1/4 76/1/4
f 73/1/4 74/1/4 77/1/4
f 76/2/4 73/2/4 77/2/4
f 77/1/4 74/1/4 78/1/4
f 75/2/4 76/2/4 79/2/4
f 76/2/4 77/2/4 79/2/4
f 77/2/4 78/2/4 79/2/4
f 79/2/4 78/2/4 80/2/4
f 84/1/5 82/1/5 81/1/5
f 85/2/5 83/2/5 82/2/5
f 85/1/5 82/1/5 84/1/5
f 86/2/5 85/2/5 84/2/5
f 87/2/5 83/2/5 85/2/5
f 87/2/5 85/2/5 86/2/5
f 88/1/5 87/1/5 86/1/5
f 89/2/5 83/2/5 87/2/5
f 89/1/5 87/1/5 88/1/5
f 90/2/5 89/2/5 88/2/5
f 91/2/5 83/2/5 89/2/5
f 91/2/5 89/2/5 90/2/5
f 92/1/5 91/1/5 90/1/5
f 93/2/5 83/2/5 91/2/5
f 93/1/5 91/1/5 92/1/5
f 94/2/5 93/2/5 92/2/5
f 95/2/5 83/2/5 93/2/5
f 95/2/5 93/2/5 94/2/5
f 96/1/5 95/1/5 94/1/5
f 97/2/5 83/2/5 95/2/5
f 97/1/5 95/1/5 96/1/5
f 98/2/5 97/2/5 96/2/5
f 99/2/5 83/2/5 97/2/5
f 99/2/5 97/2/5 98/2/5
f 100/1/5 99/1/5 98/1/5
f 101/2/5 83/2/5 99/2/5
f 101/1/5 99/1/5 100/1/5
f 102/2/5 101/2/5 100/2/5
f 103/2/5 83/2/5 101/2/5
f 103/2/5 101/2/5 102/2/5
f 104/1/5 103/1/5 102/1/5
f 105/2/5 83/2/5 103/2/5
f 105/1/5 103/1/5 104/1/5
f 106/2/5 105/2/5 104/2/5
f 107/2/5 83/2/5 105/2/5
f 107/2/5 105/2/5 106/2/5
f 108/1/5 107/1/5 106/1/5
f 109/2/5 83/2/5 107/2/5
f 109/1/5 107/1/5 108/1/5
f 110/2/5 83/2/5 109/2/5
f 111/1/6 112/1/6 114/1/6
f 112/2/6 113/2/6 115/2/6
f 114/1/6 112/1/6 115/1/6
f 114/2/6 115/2/6 116/2/6
f 115/2/6 113/2/6 117/2/6
f 116/2/6 115/2/6 117/2/6
f 116/1/6 117/1/6 118/1/6
f 117/2/6 113/2/6 119/2/6
f 118/1/6 117/1/6 119/1/6
f 118/2/6 119/2/6 120/2/6
f 119/2/6 113/2/6 121/2/6
f 120/2/6 119/2/6 121/2/6
f 120/1/6 121/1/6 122/1/6
f 121/2/6 113/2/6 123/2/6
f 122/1/6 121/1/6 123/1/6
f 122/2/6 123/2/6 124/2/6
f 123/2/6 113/2/6 125/2/6
f 124/2/6 123/2/6 125/2/6
f 124/1/6 125/1/6 126/1/6
f 125/2/6 113/2/6 127/2/6
f 126/1/6 125/1/6 127/1/6
f 126/2/6 127/2/6 128/2/6
f 127/2/6 113/2/6 129/2/6
f 128/2/6 127/2/6 129/2/6
f 128/1/6 129/1/6 130/1/6
f 129/2/6 113/2/6 131/2/6
f 130/1/6 129/1/6 131/1/6
f 130/2/6 131/2/6 132/2/6
f 131/2/6 113/2/6 133/2/6
f 132/2/6 131/2/6 133/2/6
f 132/1/6 133/1/6 134/1/6
f 133/2/6 113/2/6 135/2/6
f 134/1/6 133/1/6 135/1/6
f 134/2/6 135/2/6 136/2/6
f 135/2/6 113/2/6 137/2/6
f 136/2/6 135/2/6 137/2/6
f 136/1/6 137/1/6 138/1/6
f 137/2/6 113/2/6 139/2/6
f 138/1/6 137/1/6 139/1/6
f 139/2/6 113/2/6 140/2/6
